<mxfile host="app.diagrams.net" agent="Mozilla/5.0 (Windows NT 10.0; Win64; x64; rv:134.0) Gecko/20100101 Firefox/134.0" version="26.0.5" pages="2">
  <diagram name="Page-1" id="3VADjuNn7AHXngsNDC3F">
    <mxGraphModel dx="1195" dy="622" grid="1" gridSize="10" guides="1" tooltips="1" connect="1" arrows="1" fold="1" page="1" pageScale="1" pageWidth="827" pageHeight="1169" math="0" shadow="0">
      <root>
        <mxCell id="0" />
        <mxCell id="1" parent="0" />
        <mxCell id="f_F3qkZHPPxfOdYiYv59-1" value="&lt;div&gt;5x5@32 conv, ReLU&lt;/div&gt;" style="rounded=0;whiteSpace=wrap;html=1;fillColor=#d5e8d4;strokeColor=#82b366;fontSize=20;" parent="1" vertex="1">
          <mxGeometry x="330.9473684210526" y="71.87949552439858" width="269.0526315789474" height="25.307070987511498" as="geometry" />
        </mxCell>
        <mxCell id="H3tvmHEl2sPPHidZ3QEa-8" style="edgeStyle=orthogonalEdgeStyle;rounded=0;orthogonalLoop=1;jettySize=auto;html=1;exitX=0.5;exitY=1;exitDx=0;exitDy=0;entryX=0.5;entryY=0;entryDx=0;entryDy=0;fontSize=20;" edge="1" parent="1" source="f_F3qkZHPPxfOdYiYv59-2" target="f_F3qkZHPPxfOdYiYv59-30">
          <mxGeometry relative="1" as="geometry" />
        </mxCell>
        <mxCell id="f_F3qkZHPPxfOdYiYv59-2" value="5x5@32 conv, ReLU" style="rounded=0;whiteSpace=wrap;html=1;fillColor=#d5e8d4;strokeColor=#82b366;fontSize=20;" parent="1" vertex="1">
          <mxGeometry x="330.9473684210526" y="111.10545555504133" width="269.0526315789474" height="25.307070987511498" as="geometry" />
        </mxCell>
        <mxCell id="f_F3qkZHPPxfOdYiYv59-8" value="" style="edgeStyle=orthogonalEdgeStyle;rounded=0;orthogonalLoop=1;jettySize=auto;html=1;entryX=0.5;entryY=0;entryDx=0;entryDy=0;exitX=0.5;exitY=1;exitDx=0;exitDy=0;fontSize=20;" parent="1" source="f_F3qkZHPPxfOdYiYv59-30" target="f_F3qkZHPPxfOdYiYv59-10" edge="1">
          <mxGeometry relative="1" as="geometry">
            <mxPoint x="465.550998185118" y="69.34878842564743" as="sourcePoint" />
            <mxPoint x="465.4736842105263" y="109.84010200566583" as="targetPoint" />
          </mxGeometry>
        </mxCell>
        <mxCell id="f_F3qkZHPPxfOdYiYv59-12" value="" style="edgeStyle=orthogonalEdgeStyle;rounded=0;orthogonalLoop=1;jettySize=auto;html=1;fontSize=20;" parent="1" source="f_F3qkZHPPxfOdYiYv59-10" target="f_F3qkZHPPxfOdYiYv59-11" edge="1">
          <mxGeometry relative="1" as="geometry" />
        </mxCell>
        <mxCell id="f_F3qkZHPPxfOdYiYv59-10" value="&lt;div&gt;4x4@64 conv, ReLU&lt;/div&gt;" style="rounded=0;whiteSpace=wrap;html=1;fillColor=#f8cecc;strokeColor=#b85450;fontSize=20;" parent="1" vertex="1">
          <mxGeometry x="330.9473684210526" y="179.43328186777308" width="269.0526315789474" height="25.307070987511498" as="geometry" />
        </mxCell>
        <mxCell id="f_F3qkZHPPxfOdYiYv59-14" value="" style="edgeStyle=orthogonalEdgeStyle;rounded=0;orthogonalLoop=1;jettySize=auto;html=1;entryX=0.5;entryY=0;entryDx=0;entryDy=0;fontSize=20;" parent="1" source="f_F3qkZHPPxfOdYiYv59-11" target="f_F3qkZHPPxfOdYiYv59-31" edge="1">
          <mxGeometry relative="1" as="geometry">
            <mxPoint x="465.4736842105263" y="236.37545694322324" as="targetPoint" />
          </mxGeometry>
        </mxCell>
        <mxCell id="f_F3qkZHPPxfOdYiYv59-11" value="4x4@64 conv, ReLU" style="rounded=0;whiteSpace=wrap;html=1;fillColor=#f8cecc;strokeColor=#b85450;fontSize=20;" parent="1" vertex="1">
          <mxGeometry x="330.9473684210526" y="213.6028891151111" width="269.0526315789474" height="25.307070987511498" as="geometry" />
        </mxCell>
        <mxCell id="f_F3qkZHPPxfOdYiYv59-27" value="" style="edgeStyle=orthogonalEdgeStyle;rounded=0;orthogonalLoop=1;jettySize=auto;html=1;exitX=0.5;exitY=1;exitDx=0;exitDy=0;fontSize=20;" parent="1" source="f_F3qkZHPPxfOdYiYv59-31" target="f_F3qkZHPPxfOdYiYv59-26" edge="1">
          <mxGeometry relative="1" as="geometry">
            <mxPoint x="465.550998185118" y="261.6825279307348" as="sourcePoint" />
          </mxGeometry>
        </mxCell>
        <mxCell id="f_F3qkZHPPxfOdYiYv59-29" value="" style="edgeStyle=orthogonalEdgeStyle;rounded=0;orthogonalLoop=1;jettySize=auto;html=1;fontSize=20;" parent="1" source="f_F3qkZHPPxfOdYiYv59-26" target="f_F3qkZHPPxfOdYiYv59-28" edge="1">
          <mxGeometry relative="1" as="geometry" />
        </mxCell>
        <mxCell id="f_F3qkZHPPxfOdYiYv59-26" value="&lt;div&gt;3x3@128 conv, ReLU&lt;/div&gt;" style="rounded=0;whiteSpace=wrap;html=1;fillColor=#e1d5e7;strokeColor=#9673a6;fontSize=20;" parent="1" vertex="1">
          <mxGeometry x="330.9473684210526" y="281.93071542784276" width="269.0526315789474" height="25.307070987511498" as="geometry" />
        </mxCell>
        <mxCell id="f_F3qkZHPPxfOdYiYv59-34" value="" style="edgeStyle=orthogonalEdgeStyle;rounded=0;orthogonalLoop=1;jettySize=auto;html=1;fontSize=20;" parent="1" source="f_F3qkZHPPxfOdYiYv59-28" target="f_F3qkZHPPxfOdYiYv59-32" edge="1">
          <mxGeometry relative="1" as="geometry" />
        </mxCell>
        <mxCell id="f_F3qkZHPPxfOdYiYv59-28" value="3x3@128 conv, ReLU" style="rounded=0;whiteSpace=wrap;html=1;fillColor=#e1d5e7;strokeColor=#9673a6;fontSize=20;" parent="1" vertex="1">
          <mxGeometry x="330.9473684210526" y="316.0889344932363" width="269.0526315789474" height="25.307070987511498" as="geometry" />
        </mxCell>
        <mxCell id="f_F3qkZHPPxfOdYiYv59-30" value="Pool /2" style="rounded=0;whiteSpace=wrap;html=1;fontSize=20;" parent="1" vertex="1">
          <mxGeometry x="330.9473684210526" y="145.27506280237944" width="269.0526315789474" height="25.307070987511498" as="geometry" />
        </mxCell>
        <mxCell id="f_F3qkZHPPxfOdYiYv59-31" value="&lt;div&gt;Pool /2&lt;/div&gt;" style="rounded=0;whiteSpace=wrap;html=1;fontSize=20;" parent="1" vertex="1">
          <mxGeometry x="330.9473684210526" y="247.76110818050475" width="269.0526315789474" height="25.307070987511498" as="geometry" />
        </mxCell>
        <mxCell id="f_F3qkZHPPxfOdYiYv59-36" value="" style="edgeStyle=orthogonalEdgeStyle;rounded=0;orthogonalLoop=1;jettySize=auto;html=1;fontSize=20;" parent="1" source="f_F3qkZHPPxfOdYiYv59-32" target="f_F3qkZHPPxfOdYiYv59-35" edge="1">
          <mxGeometry relative="1" as="geometry" />
        </mxCell>
        <mxCell id="f_F3qkZHPPxfOdYiYv59-32" value="&lt;div&gt;Pool /2&lt;/div&gt;" style="rounded=0;whiteSpace=wrap;html=1;fontSize=20;" parent="1" vertex="1">
          <mxGeometry x="330.9473684210526" y="350.2585417405744" width="269.0526315789474" height="25.307070987511498" as="geometry" />
        </mxCell>
        <mxCell id="f_F3qkZHPPxfOdYiYv59-38" value="" style="edgeStyle=orthogonalEdgeStyle;rounded=0;orthogonalLoop=1;jettySize=auto;html=1;fontSize=20;" parent="1" source="f_F3qkZHPPxfOdYiYv59-35" target="f_F3qkZHPPxfOdYiYv59-37" edge="1">
          <mxGeometry relative="1" as="geometry" />
        </mxCell>
        <mxCell id="f_F3qkZHPPxfOdYiYv59-35" value="&lt;div&gt;Flatten&lt;/div&gt;" style="rounded=0;whiteSpace=wrap;html=1;fontSize=20;" parent="1" vertex="1">
          <mxGeometry x="330.9473684210526" y="381.88858441431574" width="269.0526315789474" height="25.307070987511498" as="geometry" />
        </mxCell>
        <mxCell id="f_F3qkZHPPxfOdYiYv59-40" value="" style="edgeStyle=orthogonalEdgeStyle;rounded=0;orthogonalLoop=1;jettySize=auto;html=1;fontSize=20;" parent="1" source="f_F3qkZHPPxfOdYiYv59-37" target="f_F3qkZHPPxfOdYiYv59-39" edge="1">
          <mxGeometry relative="1" as="geometry" />
        </mxCell>
        <mxCell id="f_F3qkZHPPxfOdYiYv59-37" value="1x128, FC, ReLU" style="rounded=0;whiteSpace=wrap;html=1;fillColor=#dae8fc;strokeColor=#6c8ebf;fontSize=20;" parent="1" vertex="1">
          <mxGeometry x="330.9473684210526" y="418.59142946750364" width="269.0526315789474" height="25.307070987511498" as="geometry" />
        </mxCell>
        <mxCell id="f_F3qkZHPPxfOdYiYv59-42" value="" style="edgeStyle=orthogonalEdgeStyle;rounded=0;orthogonalLoop=1;jettySize=auto;html=1;fontSize=20;" parent="1" source="f_F3qkZHPPxfOdYiYv59-39" target="f_F3qkZHPPxfOdYiYv59-41" edge="1">
          <mxGeometry relative="1" as="geometry" />
        </mxCell>
        <mxCell id="f_F3qkZHPPxfOdYiYv59-39" value="1x128, FC, ReLU" style="rounded=0;whiteSpace=wrap;html=1;fillColor=#dae8fc;strokeColor=#6c8ebf;fontSize=20;" parent="1" vertex="1">
          <mxGeometry x="330.9473684210526" y="452.75470994709474" width="269.0526315789474" height="25.307070987511498" as="geometry" />
        </mxCell>
        <mxCell id="f_F3qkZHPPxfOdYiYv59-41" value="1x10, FC, Softmax" style="rounded=0;whiteSpace=wrap;html=1;fillColor=#dae8fc;strokeColor=#6c8ebf;fontSize=20;" parent="1" vertex="1">
          <mxGeometry x="330.9473684210526" y="486.91292901248846" width="269.0526315789474" height="25.307070987511498" as="geometry" />
        </mxCell>
        <mxCell id="f_F3qkZHPPxfOdYiYv59-43" value="&lt;div&gt;Output size:&lt;/div&gt;&lt;div&gt;1024&lt;/div&gt;" style="text;html=1;align=center;verticalAlign=middle;whiteSpace=wrap;rounded=0;fontSize=20;" parent="1" vertex="1">
          <mxGeometry x="174" y="73.14455693859607" width="156.94736842105266" height="37.96060648126725" as="geometry" />
        </mxCell>
        <mxCell id="f_F3qkZHPPxfOdYiYv59-46" value="" style="edgeStyle=orthogonalEdgeStyle;rounded=0;orthogonalLoop=1;jettySize=auto;html=1;fontSize=20;" parent="1" source="f_F3qkZHPPxfOdYiYv59-44" target="f_F3qkZHPPxfOdYiYv59-1" edge="1">
          <mxGeometry relative="1" as="geometry" />
        </mxCell>
        <mxCell id="f_F3qkZHPPxfOdYiYv59-44" value="&lt;div&gt;Image&lt;/div&gt;" style="text;html=1;align=center;verticalAlign=middle;resizable=0;points=[];autosize=1;strokeColor=none;fillColor=none;fontSize=20;" parent="1" vertex="1">
          <mxGeometry x="425.47857142857146" y="15" width="80" height="40" as="geometry" />
        </mxCell>
        <mxCell id="f_F3qkZHPPxfOdYiYv59-47" value="&lt;div&gt;Output size:&lt;/div&gt;&lt;div&gt;256&lt;/div&gt;" style="text;html=1;align=center;verticalAlign=middle;whiteSpace=wrap;rounded=0;fontSize=20;" parent="1" vertex="1">
          <mxGeometry x="174" y="179.43834328197053" width="156.94736842105266" height="37.96060648126725" as="geometry" />
        </mxCell>
        <mxCell id="f_F3qkZHPPxfOdYiYv59-48" value="&lt;div&gt;Output size:&lt;/div&gt;&lt;div&gt;64&lt;br&gt;&lt;/div&gt;" style="text;html=1;align=center;verticalAlign=middle;whiteSpace=wrap;rounded=0;fontSize=20;" parent="1" vertex="1">
          <mxGeometry x="174" y="281.9357768420403" width="156.94736842105266" height="37.96060648126725" as="geometry" />
        </mxCell>
        <mxCell id="H3tvmHEl2sPPHidZ3QEa-5" style="edgeStyle=orthogonalEdgeStyle;rounded=0;orthogonalLoop=1;jettySize=auto;html=1;exitX=0.5;exitY=1;exitDx=0;exitDy=0;entryX=0.498;entryY=-0.115;entryDx=0;entryDy=0;entryPerimeter=0;fontSize=20;" edge="1" parent="1" source="f_F3qkZHPPxfOdYiYv59-1" target="f_F3qkZHPPxfOdYiYv59-2">
          <mxGeometry relative="1" as="geometry" />
        </mxCell>
      </root>
    </mxGraphModel>
  </diagram>
  <diagram id="zcEsb8Vy9n0ZBSg8vFEC" name="Page-2">
    <mxGraphModel dx="1509" dy="1954" grid="1" gridSize="10" guides="1" tooltips="1" connect="1" arrows="1" fold="1" page="1" pageScale="1" pageWidth="827" pageHeight="1169" math="0" shadow="0">
      <root>
        <mxCell id="0" />
        <mxCell id="1" parent="0" />
        <mxCell id="33zIu2zofnxsiKNPAAbd-2" value="&lt;div&gt;5x5@3 conv, ReLU&lt;/div&gt;" style="rounded=0;whiteSpace=wrap;html=1;fillColor=#d5e8d4;strokeColor=#82b366;fontSize=20;" vertex="1" parent="1">
          <mxGeometry x="324" y="-10" width="306" height="30" as="geometry" />
        </mxCell>
        <mxCell id="33zIu2zofnxsiKNPAAbd-5" value="" style="edgeStyle=orthogonalEdgeStyle;rounded=0;orthogonalLoop=1;jettySize=auto;html=1;entryX=0.5;entryY=0;entryDx=0;entryDy=0;exitX=0.5;exitY=1;exitDx=0;exitDy=0;fontSize=20;" edge="1" source="33zIu2zofnxsiKNPAAbd-15" target="33zIu2zofnxsiKNPAAbd-7" parent="1">
          <mxGeometry relative="1" as="geometry">
            <mxPoint x="477.0879310344828" y="-109.90254656595643" as="sourcePoint" />
            <mxPoint x="477" y="-56.30933740850692" as="targetPoint" />
          </mxGeometry>
        </mxCell>
        <mxCell id="33zIu2zofnxsiKNPAAbd-6" value="" style="edgeStyle=orthogonalEdgeStyle;rounded=0;orthogonalLoop=1;jettySize=auto;html=1;entryX=0.5;entryY=0;entryDx=0;entryDy=0;fontSize=20;" edge="1" source="33zIu2zofnxsiKNPAAbd-7" target="33zIu2zofnxsiKNPAAbd-16" parent="1">
          <mxGeometry relative="1" as="geometry">
            <mxPoint x="477.0520408163266" y="161.4130747936316" as="targetPoint" />
          </mxGeometry>
        </mxCell>
        <mxCell id="33zIu2zofnxsiKNPAAbd-7" value="&lt;div&gt;4x4@6 conv, ReLU&lt;/div&gt;" style="rounded=0;whiteSpace=wrap;html=1;fillColor=#f8cecc;strokeColor=#b85450;fontSize=20;" vertex="1" parent="1">
          <mxGeometry x="324" y="77.67776642073657" width="306.00000000000006" height="33.495755723405935" as="geometry" />
        </mxCell>
        <mxCell id="33zIu2zofnxsiKNPAAbd-10" value="" style="edgeStyle=orthogonalEdgeStyle;rounded=0;orthogonalLoop=1;jettySize=auto;html=1;exitX=0.5;exitY=1;exitDx=0;exitDy=0;fontSize=20;" edge="1" source="33zIu2zofnxsiKNPAAbd-16" target="33zIu2zofnxsiKNPAAbd-12" parent="1">
          <mxGeometry relative="1" as="geometry">
            <mxPoint x="477.0879310344828" y="144.66519693192868" as="sourcePoint" />
          </mxGeometry>
        </mxCell>
        <mxCell id="33zIu2zofnxsiKNPAAbd-33" value="" style="edgeStyle=orthogonalEdgeStyle;rounded=0;orthogonalLoop=1;jettySize=auto;html=1;fontSize=20;" edge="1" parent="1" source="33zIu2zofnxsiKNPAAbd-12" target="33zIu2zofnxsiKNPAAbd-18">
          <mxGeometry relative="1" as="geometry" />
        </mxCell>
        <mxCell id="33zIu2zofnxsiKNPAAbd-12" value="&lt;div&gt;3x3@9 conv, ReLU&lt;/div&gt;" style="rounded=0;whiteSpace=wrap;html=1;fillColor=#e1d5e7;strokeColor=#9673a6;fontSize=20;" vertex="1" parent="1">
          <mxGeometry x="324" y="161.41369153942173" width="306.00000000000006" height="33.495755723405935" as="geometry" />
        </mxCell>
        <mxCell id="33zIu2zofnxsiKNPAAbd-15" value="Pool /2" style="rounded=0;whiteSpace=wrap;html=1;fontSize=20;" vertex="1" parent="1">
          <mxGeometry x="324" y="30.00068998200405" width="306.00000000000006" height="33.495755723405935" as="geometry" />
        </mxCell>
        <mxCell id="33zIu2zofnxsiKNPAAbd-16" value="&lt;div&gt;Pool /2&lt;/div&gt;" style="rounded=0;whiteSpace=wrap;html=1;fontSize=20;" vertex="1" parent="1">
          <mxGeometry x="324" y="119.5515420106138" width="306.00000000000006" height="33.495755723405935" as="geometry" />
        </mxCell>
        <mxCell id="33zIu2zofnxsiKNPAAbd-17" value="" style="edgeStyle=orthogonalEdgeStyle;rounded=0;orthogonalLoop=1;jettySize=auto;html=1;fontSize=20;" edge="1" source="33zIu2zofnxsiKNPAAbd-18" target="33zIu2zofnxsiKNPAAbd-20" parent="1">
          <mxGeometry relative="1" as="geometry" />
        </mxCell>
        <mxCell id="33zIu2zofnxsiKNPAAbd-18" value="&lt;div&gt;Pool /2&lt;/div&gt;" style="rounded=0;whiteSpace=wrap;html=1;fontSize=20;" vertex="1" parent="1">
          <mxGeometry x="324" y="209.99746712929897" width="306.00000000000006" height="33.495755723405935" as="geometry" />
        </mxCell>
        <mxCell id="33zIu2zofnxsiKNPAAbd-19" value="" style="edgeStyle=orthogonalEdgeStyle;rounded=0;orthogonalLoop=1;jettySize=auto;html=1;fontSize=20;" edge="1" source="33zIu2zofnxsiKNPAAbd-20" target="33zIu2zofnxsiKNPAAbd-22" parent="1">
          <mxGeometry relative="1" as="geometry" />
        </mxCell>
        <mxCell id="33zIu2zofnxsiKNPAAbd-20" value="&lt;div&gt;Flatten&lt;/div&gt;" style="rounded=0;whiteSpace=wrap;html=1;fontSize=20;" vertex="1" parent="1">
          <mxGeometry x="324" y="250.00454356803152" width="306.00000000000006" height="33.495755723405935" as="geometry" />
        </mxCell>
        <mxCell id="33zIu2zofnxsiKNPAAbd-21" value="" style="edgeStyle=orthogonalEdgeStyle;rounded=0;orthogonalLoop=1;jettySize=auto;html=1;fontSize=20;" edge="1" source="33zIu2zofnxsiKNPAAbd-22" target="33zIu2zofnxsiKNPAAbd-24" parent="1">
          <mxGeometry relative="1" as="geometry" />
        </mxCell>
        <mxCell id="33zIu2zofnxsiKNPAAbd-22" value="1x64, FC, ReLU" style="rounded=0;whiteSpace=wrap;html=1;fillColor=#dae8fc;strokeColor=#6c8ebf;fontSize=20;" vertex="1" parent="1">
          <mxGeometry x="324" y="290.00339224798415" width="306.00000000000006" height="33.495755723405935" as="geometry" />
        </mxCell>
        <mxCell id="33zIu2zofnxsiKNPAAbd-23" value="" style="edgeStyle=orthogonalEdgeStyle;rounded=0;orthogonalLoop=1;jettySize=auto;html=1;fontSize=20;" edge="1" source="33zIu2zofnxsiKNPAAbd-24" target="33zIu2zofnxsiKNPAAbd-25" parent="1">
          <mxGeometry relative="1" as="geometry" />
        </mxCell>
        <mxCell id="33zIu2zofnxsiKNPAAbd-24" value="&lt;div&gt;1x64, FC, ReLU&lt;/div&gt;" style="rounded=0;whiteSpace=wrap;html=1;fillColor=#dae8fc;strokeColor=#6c8ebf;fontSize=20;" vertex="1" parent="1">
          <mxGeometry x="324" y="329.99909486052115" width="306.00000000000006" height="33.495755723405935" as="geometry" />
        </mxCell>
        <mxCell id="33zIu2zofnxsiKNPAAbd-25" value="1x1, FC, Linear" style="rounded=0;whiteSpace=wrap;html=1;fillColor=#dae8fc;strokeColor=#6c8ebf;fontSize=20;" vertex="1" parent="1">
          <mxGeometry x="324" y="370.0042442765939" width="306.00000000000006" height="33.495755723405935" as="geometry" />
        </mxCell>
        <mxCell id="33zIu2zofnxsiKNPAAbd-26" value="&lt;div&gt;Output size:&lt;/div&gt;&lt;div&gt;4096&lt;br&gt;&lt;/div&gt;" style="text;html=1;align=center;verticalAlign=middle;whiteSpace=wrap;rounded=0;fontSize=20;" vertex="1" parent="1">
          <mxGeometry x="130" y="-10.001459546804004" width="178.50000000000003" height="50.2436335851089" as="geometry" />
        </mxCell>
        <mxCell id="33zIu2zofnxsiKNPAAbd-27" value="" style="edgeStyle=orthogonalEdgeStyle;rounded=0;orthogonalLoop=1;jettySize=auto;html=1;fontSize=20;" edge="1" source="33zIu2zofnxsiKNPAAbd-28" target="33zIu2zofnxsiKNPAAbd-2" parent="1">
          <mxGeometry relative="1" as="geometry" />
        </mxCell>
        <mxCell id="33zIu2zofnxsiKNPAAbd-28" value="&lt;div&gt;Image&lt;/div&gt;" style="text;html=1;align=center;verticalAlign=middle;resizable=0;points=[];autosize=1;strokeColor=none;fillColor=none;fontSize=20;" vertex="1" parent="1">
          <mxGeometry x="436.9971428571428" y="-70" width="80" height="40" as="geometry" />
        </mxCell>
        <mxCell id="33zIu2zofnxsiKNPAAbd-29" value="&lt;div&gt;Output size:&lt;/div&gt;&lt;div&gt;1024&lt;/div&gt;" style="text;html=1;align=center;verticalAlign=middle;whiteSpace=wrap;rounded=0;fontSize=20;" vertex="1" parent="1">
          <mxGeometry x="130" y="77.67446557188126" width="178.50000000000003" height="50.2436335851089" as="geometry" />
        </mxCell>
        <mxCell id="33zIu2zofnxsiKNPAAbd-30" value="&lt;div&gt;Output size:&lt;/div&gt;&lt;div&gt;256&lt;br&gt;&lt;/div&gt;" style="text;html=1;align=center;verticalAlign=middle;whiteSpace=wrap;rounded=0;fontSize=20;" vertex="1" parent="1">
          <mxGeometry x="130" y="159.75039069056643" width="178.50000000000003" height="50.2436335851089" as="geometry" />
        </mxCell>
        <mxCell id="33zIu2zofnxsiKNPAAbd-36" style="edgeStyle=orthogonalEdgeStyle;rounded=0;orthogonalLoop=1;jettySize=auto;html=1;exitX=0.5;exitY=1;exitDx=0;exitDy=0;entryX=0.501;entryY=0.083;entryDx=0;entryDy=0;entryPerimeter=0;" edge="1" parent="1" source="33zIu2zofnxsiKNPAAbd-2" target="33zIu2zofnxsiKNPAAbd-15">
          <mxGeometry relative="1" as="geometry" />
        </mxCell>
      </root>
    </mxGraphModel>
  </diagram>
</mxfile>
